<svg width="600" height="600" viewBox="0 0 600 600" fill="none" xmlns="http://www.w3.org/2000/svg">
<path d="M382.497 88.4567C382.497 88.4567 301.243 61.1756 221.482 104.612C141.721 148.049 101.469 234.284 66.9102 303.359C32.3509 372.434 52.2402 442.696 113.089 474.754C173.939 506.812 215.382 459.541 300.792 457.259C386.202 454.978 409.227 466.438 480.096 420.912C550.965 375.386 563.788 267.772 507.879 188.099C451.97 108.426 382.497 88.4567 382.497 88.4567Z" fill="#EEEEEE"/>
<path d="M524.965 272.214C524.965 272.214 524.965 266.515 516.524 258.543C508.083 250.572 502.649 246.008 502.649 246.008C502.649 246.008 498.428 259.111 506.268 267.093C512.035 272.701 518.289 277.844 524.965 282.467V272.214Z" fill="#118F08"/>
<path d="M512.712 307.791C512.712 307.791 512.712 302.092 504.271 294.12C495.829 286.149 490.395 281.585 490.395 281.585C490.395 281.585 486.175 294.688 494.014 302.66C499.78 308.273 506.034 313.42 512.712 318.045V307.791Z" fill="#118F08"/>
<path d="M524.471 281.92C524.471 281.92 525.105 276.251 534.394 269.162C543.684 262.073 549.591 258.087 549.591 258.087C549.591 258.087 552.329 271.535 543.641 278.685C537.278 283.69 530.481 288.181 523.322 292.112L524.471 281.92Z" fill="#118F08"/>
<path d="M509.63 323.927C509.63 323.927 510.897 318.369 520.927 312.284C530.958 306.199 537.273 302.771 537.273 302.771C537.273 302.771 538.486 316.422 529.057 322.669C522.17 327.014 514.91 330.807 507.353 334.008L509.63 323.927Z" fill="#118F08"/>
<path d="M512.411 369.737C512.411 369.737 512.411 364.037 520.863 356.066C529.315 348.094 534.738 343.531 534.738 343.531C534.738 343.531 538.959 356.634 531.119 364.605C525.348 370.217 519.091 375.364 512.411 379.99V369.737Z" fill="#118F08"/>
<path d="M512.271 380.913C512.271 380.913 513.131 375.274 505.978 366.248C498.826 357.222 494.165 351.989 494.165 351.989C494.165 351.989 488.022 364.382 494.584 373.286C499.446 379.617 504.864 385.55 510.779 391.024L512.271 380.913Z" fill="#118F08"/>
<path d="M503.948 414.056C503.948 414.056 503.948 408.357 512.39 400.385C520.831 392.414 526.265 387.85 526.265 387.85C526.265 387.85 530.485 400.953 522.646 408.924C516.877 414.535 510.623 419.681 503.948 424.309V414.056Z" fill="#118F08"/>
<path d="M509.587 444.126C509.587 444.126 508.062 438.609 514.086 428.914C520.111 419.218 524.149 413.468 524.149 413.468C524.149 413.468 531.753 425.131 526.297 434.766C522.222 441.571 517.552 448.044 512.336 454.116L509.587 444.126Z" fill="#118F08"/>
<path d="M525.738 270.754C525.301 276.686 524.519 282.59 523.397 288.441C520.057 304.729 511.713 315.235 508.362 329.951C505.012 344.667 514.613 363.611 512.046 382.505C509.479 401.399 501.693 411.916 503.916 424.522C506.139 437.129 517.824 471.276 517.824 471.276" stroke="#263238" stroke-linecap="round" stroke-linejoin="round"/>
<path d="M524.353 285.703L533.46 279.111" stroke="#263238" stroke-linecap="round" stroke-linejoin="round"/>
<path d="M524.783 278.107L520.97 271.717" stroke="#263238" stroke-linecap="round" stroke-linejoin="round"/>
<path d="M508.91 329.271C508.91 329.271 516.524 323.876 524.353 318.481" stroke="#263238" stroke-linecap="round" stroke-linejoin="round"/>
<path d="M512.712 318.045C512.712 318.045 506.365 306.29 499.169 298.491" stroke="#263238" stroke-linecap="round" stroke-linejoin="round"/>
<path d="M512.712 377.84C517.063 370.269 522.554 363.334 529.014 357.252" stroke="#263238" stroke-linecap="round" stroke-linejoin="round"/>
<path d="M511.23 385.832C508.924 380.695 506.169 375.749 502.993 371.045C498.546 364.849 497.913 364.047 497.913 364.047" stroke="#263238" stroke-linecap="round" stroke-linejoin="round"/>
<path d="M503.948 424.522C505.876 419.995 508.17 415.614 510.811 411.419C513.449 407.529 516.423 403.852 519.703 400.426" stroke="#263238" stroke-linecap="round" stroke-linejoin="round"/>
<path d="M512.336 454.014C512.336 454.014 511.444 447.189 514.623 441.398C517.802 435.607 521.389 428.001 522.871 425.009" stroke="#263238" stroke-linecap="round" stroke-linejoin="round"/>
<path d="M469.7 348.318C469.7 348.318 469.045 344.738 473.427 338.876C477.809 333.014 480.687 329.596 480.687 329.596C480.687 329.596 484.843 337.375 480.837 343.186C477.868 347.293 474.538 351.157 470.882 354.737L469.7 348.318Z" fill="#118F08"/>
<path d="M481.449 369.362C481.449 369.362 480.794 365.792 485.165 359.93C489.536 354.068 492.425 350.65 492.425 350.65C492.425 350.65 496.581 358.429 492.586 364.23C489.613 368.341 486.279 372.208 482.62 375.791L481.449 369.362Z" fill="#118F08"/>
<path d="M471.118 354.342C471.118 354.342 470.044 350.853 463.429 347.364C456.813 343.876 452.625 341.979 452.625 341.979C452.625 341.979 452.453 350.691 458.725 354.281C463.291 356.766 468.069 358.886 473.008 360.62L471.118 354.342Z" fill="#118F08"/>
<path d="M485.23 379.219C485.23 379.219 483.801 375.862 476.81 373.043C469.819 370.224 465.469 368.753 465.469 368.753C465.469 368.753 466.264 377.434 472.901 380.386C477.716 382.405 482.703 384.04 487.807 385.274L485.23 379.219Z" fill="#118F08"/>
<path d="M488.752 408.184C488.752 408.184 488.097 404.604 481.89 400.476C475.682 396.349 471.741 394.036 471.741 394.036C471.741 394.036 470.603 402.687 476.434 406.886C480.701 409.808 485.216 412.393 489.933 414.614L488.752 408.184Z" fill="#118F08"/>
<path d="M490.105 415.172C490.105 415.172 488.924 411.723 492.371 405.334C495.819 398.945 498.16 395.193 498.16 395.193C498.16 395.193 503.444 402.292 500.308 408.62C497.989 413.087 495.277 417.361 492.199 421.399L490.105 415.172Z" fill="#118F08"/>
<path d="M500.726 443.984C500.726 443.984 501.167 440.384 507.116 435.922C513.066 431.459 516.846 428.914 516.846 428.914C516.846 428.914 518.511 437.483 512.937 441.986C508.862 445.139 504.515 447.965 499.942 450.434L500.726 443.984Z" fill="#118F08"/>
<path d="M499.159 435.1C499.159 435.1 498.503 431.53 492.285 427.393C486.067 423.255 482.147 420.963 482.147 420.963C482.147 420.963 481.009 429.603 486.84 433.802C491.103 436.731 495.619 439.316 500.34 441.53L499.159 435.1Z" fill="#118F08"/>
<path d="M499.073 454.521C499.073 454.521 499.395 450.901 494.498 445.394C489.601 439.887 486.411 436.733 486.411 436.733C486.411 436.733 482.996 444.846 487.485 450.282C490.825 454.134 494.5 457.717 498.471 460.992L499.073 454.521Z" fill="#118F08"/>
<path d="M469.024 347.476C469.973 351.15 471.134 354.773 472.503 358.327C476.477 368.205 482.91 373.936 486.701 382.82C490.492 391.704 486.647 404.563 490.427 416.155C494.208 427.747 500.308 433.528 500.361 441.662C500.415 449.795 497.011 472.411 497.011 472.411" stroke="#263238" stroke-linecap="round" stroke-linejoin="round"/>
<path d="M471.612 356.705L465.147 353.51" stroke="#263238" stroke-linecap="round" stroke-linejoin="round"/>
<path d="M470.474 351.989L472.128 347.587" stroke="#263238" stroke-linecap="round" stroke-linejoin="round"/>
<path d="M486.304 382.444C486.304 382.444 480.934 379.838 475.371 377.262" stroke="#263238" stroke-linecap="round" stroke-linejoin="round"/>
<path d="M482.588 375.791C484.172 371.055 486.267 366.484 488.838 362.151" stroke="#263238" stroke-linecap="round" stroke-linejoin="round"/>
<path d="M489.493 413.295C485.897 408.99 481.657 405.201 476.906 402.048" stroke="#263238" stroke-linecap="round" stroke-linejoin="round"/>
<path d="M491.34 418.153C492.202 414.688 493.366 411.296 494.82 408.012C496.893 403.671 497.204 403.103 497.204 403.103" stroke="#263238" stroke-linecap="round" stroke-linejoin="round"/>
<path d="M500.071 447.838C500.071 447.838 504.367 442.879 507.02 441.023C508.627 439.903 510.135 438.661 511.53 437.311" stroke="#263238" stroke-linecap="round" stroke-linejoin="round"/>
<path d="M500.361 441.662C498.628 439.022 496.686 436.51 494.551 434.147C492.45 431.981 490.161 429.983 487.71 428.173" stroke="#263238" stroke-linecap="round" stroke-linejoin="round"/>
<path d="M498.493 461.022C498.272 458.266 497.274 455.615 495.604 453.345C492.951 450.029 489.826 445.637 488.548 443.913" stroke="#263238" stroke-linecap="round" stroke-linejoin="round"/>
<path d="M524.085 519.56H490.675C489.977 519.56 489.308 519.298 488.814 518.832C488.321 518.366 488.043 517.734 488.043 517.075L479.763 468.466H535.007L526.716 517.075C526.716 517.734 526.439 518.366 525.945 518.832C525.452 519.298 524.783 519.56 524.085 519.56Z" fill="#263238" stroke="#263238" stroke-linecap="round" stroke-linejoin="round"/>
<path d="M534.523 475.271H479.753C478.613 475.271 477.521 474.844 476.715 474.083C475.909 473.322 475.457 472.291 475.457 471.215C475.457 470.139 475.909 469.107 476.715 468.346C477.521 467.585 478.613 467.158 479.753 467.158H534.523C535.663 467.158 536.755 467.585 537.561 468.346C538.366 469.107 538.819 470.139 538.819 471.215C538.819 472.291 538.366 473.322 537.561 474.083C536.755 474.844 535.663 475.271 534.523 475.271Z" fill="#263238" stroke="#263238" stroke-linecap="round" stroke-linejoin="round"/>
<path d="M481.933 475.454H521.7" stroke="white" stroke-linecap="round" stroke-linejoin="round"/>
<path d="M525.438 475.454H531.989" stroke="white" stroke-linecap="round" stroke-linejoin="round"/>
<path d="M301.705 238.321C301.705 238.321 298.912 240.958 299.192 243.594C299.471 246.231 323.205 293.441 325.718 296.869C328.231 300.297 335.491 301.351 338.852 299.506C342.213 297.66 355.326 284.476 355.326 284.476L354.671 216.871C354.671 216.871 343.04 248.31 339.69 253.381C336.339 258.452 334.653 261.038 334.653 261.038C334.653 261.038 327.135 240.988 325.159 237.033C323.776 234.487 321.643 232.374 319.016 230.948L301.705 238.321Z" fill="#BFBFBF" stroke="#263238" stroke-linecap="round" stroke-linejoin="round"/>
<path d="M360.46 501.934C360.46 501.934 343.695 507.917 337.359 510.047C331.023 512.177 331.399 517.44 332.14 518.495L332.892 519.509H392.882C393.77 516.504 393.639 513.312 392.506 510.382C390.648 505.128 360.46 501.934 360.46 501.934Z" fill="#BFBFBF" stroke="#263238" stroke-linecap="round" stroke-linejoin="round"/>
<path d="M393.451 516.741H331.753C331.717 517.351 331.85 517.959 332.14 518.506L332.892 519.52H392.882C393.191 518.619 393.382 517.686 393.451 516.741Z" fill="#595C5D"/>
<path d="M347.787 308.775C347.787 308.775 343.696 347.131 343.696 366.836C343.696 386.542 351.149 425.607 353.361 437.575C355.573 449.542 363.026 487.188 363.026 489.997C363.026 492.806 363.026 496.336 360.793 497.745C360.041 498.182 359.434 498.809 359.039 499.554C358.644 500.3 358.478 501.134 358.559 501.964V504.074C358.559 504.074 376.44 512.522 384.269 512.877C387.739 513.136 391.226 513.136 394.697 512.877C394.697 512.877 393.956 497.035 393.956 490.352C393.956 483.669 394.332 435.81 394.697 428.417C395.062 421.023 396.565 367.891 398.058 353.115C399.551 338.338 404.019 313.004 404.019 313.004L349.248 304.556L347.787 308.775Z" fill="white" stroke="#263238" stroke-linecap="round" stroke-linejoin="round"/>
<path d="M400.335 501.934C400.335 501.934 383.56 507.917 377.235 510.047C370.909 512.177 371.264 517.44 372.015 518.495L372.756 519.509H432.746C433.635 516.505 433.508 513.314 432.381 510.382C430.513 505.128 400.335 501.934 400.335 501.934Z" fill="#BFBFBF" stroke="#263238" stroke-linecap="round" stroke-linejoin="round"/>
<path d="M433.272 516.741H371.618C371.589 517.352 371.726 517.959 372.015 518.506L372.756 519.52H432.746C433.047 518.619 433.224 517.685 433.272 516.741Z" fill="#263238" stroke="#263238" stroke-linecap="round" stroke-linejoin="round"/>
<path d="M379.833 313.349C379.833 313.349 380.209 367.191 379.833 383.022C379.457 398.854 389.499 438.974 392.506 448.477C395.513 457.98 400.7 494.926 401.097 496.691C401.495 498.455 395.513 500.21 395.513 504.074C395.513 507.938 411.901 507.948 411.901 507.948C411.901 507.948 427.183 512.167 428.676 512.167C430.206 512.343 431.707 512.701 433.143 513.232C434.642 508.303 435.518 503.224 435.753 498.1C435.816 492.262 434.936 486.448 433.143 480.859C433.143 480.859 435.012 449.897 433.519 431.601C432.027 413.306 427.924 391.136 427.924 384.442C427.924 377.749 432.027 365.447 433.895 351.715C435.764 337.983 436.494 317.933 436.494 313.714C436.494 309.495 380.649 308.44 380.649 308.44L379.833 313.349Z" fill="white" stroke="#263238" stroke-linecap="round" stroke-linejoin="round"/>
<path d="M393.999 203.92C393.999 203.92 366.42 208.494 361.576 209.194C356.733 209.893 353.715 216.952 352.641 222.915C351.567 228.879 345.188 306.666 347.787 308.775C350.386 310.884 420.45 317.903 428.279 318.278C436.108 318.653 438.717 318.988 439.458 313.704C440.199 308.42 451.583 232.895 453.731 226.009C457.447 214.052 423.811 207.754 415.982 206.029C408.153 204.305 393.999 203.92 393.999 203.92Z" fill="#BFBFBF" stroke="#263238" stroke-linecap="round" stroke-linejoin="round"/>
<path d="M431.039 209.701C431.039 209.701 417.453 248.239 415.22 253.888C412.986 259.537 412.975 260.916 412.975 260.916L367.15 251.789C367.15 251.789 371.994 229.974 373.852 223.99C375.71 218.007 380.156 206.212 380.156 206.212L376.837 206.75C376.837 206.75 366.033 239.477 363.424 248.27C360.814 257.062 348.539 285.206 347.787 294.029C347.036 302.852 343.32 335.549 342.203 357.374C341.086 379.199 342.579 402.058 342.579 402.058C342.579 402.058 386.17 409.796 399.218 409.452C412.266 409.107 420.45 409.097 420.45 409.097C420.45 409.097 419.376 367.222 420.826 353.855C422.275 340.488 427.162 315.844 427.162 315.844L439.083 315.144L439.458 313.734L424.928 312.72C424.928 312.72 417.078 264.091 417.078 262.326V259.547L433.52 210.674L431.039 209.701Z" fill="#263238" stroke="#263238" stroke-linecap="round" stroke-linejoin="round"/>
<path d="M448.458 345.072C448.458 345.072 439.866 356.684 439.233 358.621C438.599 360.558 440.597 368.631 440.597 371.207C440.597 373.783 444.012 373.793 444.012 373.793C444.012 373.793 442.304 377.982 444.355 379.605C446.407 381.227 455.288 380.893 456.996 377.982C458.703 375.071 465.587 365.082 465.587 360.234C465.392 356.215 464.821 352.221 463.88 348.297L448.458 345.072Z" fill="url(#paint0_radial_392_4)" stroke="#263238" stroke-linecap="round" stroke-linejoin="round"/>
<path d="M444.012 373.794C444.012 373.794 446.75 371.532 446.75 368.631C446.75 365.731 449.478 360.883 449.478 360.883" stroke="#263238" stroke-linecap="round" stroke-linejoin="round"/>
<path d="M449.145 337.638C448.801 338.602 446.407 345.387 448.458 347.324C450.509 349.261 463.149 351.188 464.513 349.9C465.877 348.612 468.272 341.188 468.272 341.188L449.145 337.638Z" fill="#BFBFBF" stroke="#263238" stroke-linecap="round" stroke-linejoin="round"/>
<path d="M434.443 262.782L448.114 292.467C448.114 292.467 443.668 334.748 446.063 338.298C448.458 341.847 467.939 343.46 471.354 341.198C474.769 338.936 477.164 330.874 478.528 316.351C479.892 301.828 472.374 261.17 470.323 254.385C468.272 247.6 454.665 220.502 451.529 218.25C448.394 215.999 442.648 216.628 440.94 217.236" fill="#BFBFBF"/>
<path d="M434.443 262.782L448.114 292.467C448.114 292.467 443.668 334.748 446.063 338.298C448.458 341.847 467.939 343.46 471.354 341.198C474.769 338.936 477.164 330.874 478.528 316.351C479.892 301.828 472.374 261.17 470.323 254.385C468.272 247.6 454.665 220.502 451.529 218.25C448.394 215.999 442.648 216.628 440.94 217.236" stroke="#263238" stroke-linecap="round" stroke-linejoin="round"/>
<path d="M313.819 224.051C313.819 224.051 310.736 212.439 308.009 207.916C305.281 203.393 287.163 197.267 285.112 197.267C283.061 197.267 283.748 201.466 283.748 205.38C283.748 209.295 284.425 216.029 288.871 220.542C293.317 225.055 301.168 228.29 301.168 228.29L303.562 233.777L315.87 227.641L313.819 224.051Z" fill="#828282"/>
<path d="M313.819 224.051C313.819 224.051 310.736 212.439 308.009 207.916C305.281 203.393 287.163 197.267 285.112 197.267C283.061 197.267 283.748 201.466 283.748 205.38C283.748 209.295 284.425 216.029 288.871 220.542C293.317 225.055 301.168 228.29 301.168 228.29L303.562 233.777L315.87 227.641L313.819 224.051Z" fill="#FDCCA6"/>
<path d="M313.819 224.051C313.819 224.051 310.736 212.439 308.009 207.916C305.281 203.393 287.163 197.267 285.112 197.267C283.061 197.267 283.748 201.466 283.748 205.38C283.748 209.295 284.425 216.029 288.871 220.542C293.317 225.055 301.168 228.29 301.168 228.29L303.562 233.777L315.87 227.641L313.819 224.051Z" stroke="#263238" stroke-linecap="round" stroke-linejoin="round"/>
<path d="M306.731 192.957L307.375 190.259C307.546 189.548 307.563 188.812 307.425 188.095C307.287 187.378 306.997 186.695 306.573 186.086C306.149 185.477 305.599 184.955 304.956 184.552C304.313 184.148 303.591 183.872 302.832 183.738C301.557 183.512 300.238 183.7 299.09 184.27C297.942 184.841 297.032 185.761 296.507 186.882L270.421 242.803" stroke="#263238" stroke-linecap="round" stroke-linejoin="round"/>
<path d="M243.358 238.848C243.498 242.215 245.014 245.401 247.586 247.736C250.159 250.072 253.589 251.376 257.158 251.376C260.726 251.376 264.156 250.072 266.729 247.736C269.302 245.401 270.817 242.215 270.958 238.848H243.358Z" fill="white" stroke="#263238" stroke-linecap="round" stroke-linejoin="round"/>
<path d="M247.825 222.124C247.964 221.102 248.227 220.098 248.609 219.133" stroke="#263238" stroke-linecap="round" stroke-linejoin="round"/>
<path d="M247.396 236.465C249.748 235.38 250.875 231.587 249.898 229.548C249.216 228.233 248.624 226.878 248.126 225.491" stroke="#263238" stroke-linecap="round" stroke-linejoin="round"/>
<path d="M255.847 236.465C258.21 235.38 259.327 231.587 258.36 229.548C257.168 227.063 256.341 225.4 256.213 223.554" stroke="#263238" stroke-linecap="round" stroke-linejoin="round"/>
<path d="M264.772 221.506C264.929 220.698 265.159 219.904 265.459 219.133" stroke="#263238" stroke-linecap="round" stroke-linejoin="round"/>
<path d="M264.278 236.465C266.63 235.379 267.758 231.586 266.78 229.548C266.146 228.311 265.586 227.042 265.105 225.745" stroke="#263238" stroke-linecap="round" stroke-linejoin="round"/>
<path d="M287.84 197.267C287.84 197.267 278.958 195.33 278.282 196.943C277.605 198.555 277.595 201.79 278.958 202.754C280.322 203.717 289.558 204.042 290.578 203.768C291.599 203.494 294.004 197.845 287.84 197.267Z" fill="#FDCCA6" stroke="#263238" stroke-linecap="round" stroke-linejoin="round"/>
<path d="M290.052 204.954C290.052 204.954 281.171 203.017 280.484 204.64C279.796 206.263 279.796 209.478 281.171 210.441C282.546 211.405 291.76 211.739 292.791 211.455C293.822 211.171 296.217 205.533 290.052 204.954Z" fill="#FDCCA6" stroke="#263238" stroke-linecap="round" stroke-linejoin="round"/>
<path d="M290.89 211.557C290.89 211.557 281.783 211.07 281.396 212.774C281.01 214.478 281.59 217.652 283.115 218.392C284.64 219.133 293.79 217.966 294.735 217.48C295.68 216.993 297.065 211.141 290.89 211.557Z" fill="#FECDA6" stroke="#263238" stroke-linecap="round" stroke-linejoin="round"/>
<path d="M292.028 218.453C292.028 218.453 284.511 218.047 284.199 219.467C283.888 220.887 284.361 223.524 285.617 224.112C286.874 224.7 294.434 223.757 295.218 223.362C296.002 222.966 297.13 218.098 292.028 218.453Z" fill="#FDCCA6" stroke="#263238" stroke-linecap="round" stroke-linejoin="round"/>
<path d="M311.08 216.952C311.08 216.952 308.685 204.366 307.321 202.115C305.958 199.863 293.65 193.717 291.212 192.429C288.775 191.141 284.769 189.529 284.028 191.78C283.713 192.816 283.779 193.921 284.214 194.917C284.648 195.914 285.427 196.741 286.423 197.267C288.474 198.565 293.597 200.492 293.597 201.466C293.597 202.439 296.335 213.078 302.188 216.952" fill="#828282"/>
<path d="M311.08 216.952C311.08 216.952 308.685 204.366 307.321 202.115C305.958 199.863 293.65 193.717 291.212 192.429C288.775 191.141 284.769 189.529 284.028 191.78C283.713 192.816 283.779 193.921 284.214 194.917C284.648 195.914 285.427 196.741 286.423 197.267C288.474 198.565 293.597 200.492 293.597 201.466C293.597 202.439 296.335 213.078 302.188 216.952" fill="#FDCCA6"/>
<path d="M311.08 216.952C311.08 216.952 308.685 204.366 307.321 202.115C305.958 199.863 293.65 193.717 291.212 192.429C288.775 191.141 284.769 189.529 284.028 191.78C283.713 192.816 283.779 193.921 284.214 194.917C284.648 195.914 285.427 196.741 286.423 197.267C288.474 198.565 293.597 200.492 293.597 201.466C293.597 202.439 296.335 213.078 302.188 216.952" stroke="#263238" stroke-linecap="round" stroke-linejoin="round"/>
<path d="M315.107 224.345C315.107 224.345 298.075 232.52 299.192 234.629C299.991 236.402 300.554 238.262 300.867 240.166C300.867 240.166 318.737 232.52 319.016 230.938C319.296 229.355 317.062 225.4 315.107 224.345Z" fill="#BFBFBF" stroke="#263238" stroke-linecap="round" stroke-linejoin="round"/>
<path d="M387.662 194.417C387.662 194.417 385.804 210.248 385.804 216.932C385.804 223.615 388.081 235.207 402.193 230.664C416.304 226.12 420.45 209.549 420.45 206.324C420.45 203.099 421.942 179.58 421.942 179.58C421.942 179.58 411.88 189.793 403.685 192.247C398.5 193.766 393.091 194.499 387.662 194.417Z" fill="white"/>
<path d="M387.662 194.417C387.662 194.417 385.804 210.248 385.804 216.932C385.804 223.615 388.081 235.207 402.193 230.664C416.304 226.12 420.45 209.549 420.45 206.324C420.45 203.099 421.942 179.58 421.942 179.58C421.942 179.58 411.88 189.793 403.685 192.247C398.5 193.766 393.091 194.499 387.662 194.417Z" fill="url(#paint1_radial_392_4)"/>
<path d="M387.662 194.417C387.662 194.417 385.804 210.248 385.804 216.932C385.804 223.615 388.081 235.207 402.193 230.664C416.304 226.12 420.45 209.549 420.45 206.324C420.45 203.099 421.942 179.58 421.942 179.58C421.942 179.58 411.88 189.793 403.685 192.247C398.5 193.766 393.091 194.499 387.662 194.417Z" stroke="#263238" stroke-linecap="round" stroke-linejoin="round"/>
<path d="M383.904 144.348C383.904 144.348 388.253 131.742 393.118 127.107C397.983 122.472 426.786 121.752 430.77 125.078C434.754 128.405 438.288 135.514 439.179 141.366C440.07 147.218 432.982 160.635 432.982 160.635L383.904 144.348Z" fill="#263238" stroke="#263238" stroke-linecap="round" stroke-linejoin="round"/>
<path d="M382.819 151.832C382.819 151.832 379.468 161.335 379.833 168.059C380.199 174.783 381.702 181.436 381.702 185.655C381.702 189.874 380.961 193.403 385.053 196.567C388.683 199.366 394.847 200.117 399.358 200.36C409.914 200.918 416.841 190.624 422.318 183.545C422.318 183.545 432.746 182.531 433.498 176.862C434.25 171.193 432.542 168.617 432.542 168.617L432.983 160.676C432.983 160.676 398.101 144.449 382.819 151.832Z" fill="#FECDA6"/>
<path d="M382.819 151.832C382.819 151.832 379.468 161.335 379.833 168.059C380.199 174.783 381.702 181.436 381.702 185.655C381.702 189.874 380.961 193.403 385.053 196.567C388.683 199.366 394.847 200.117 399.358 200.36C409.914 200.918 416.841 190.624 422.318 183.545C422.318 183.545 432.746 182.531 433.498 176.862C434.25 171.193 432.542 168.617 432.542 168.617L432.983 160.676C432.983 160.676 398.101 144.449 382.819 151.832Z" fill="url(#paint2_radial_392_4)"/>
<path d="M382.819 151.832C382.819 151.832 379.468 161.335 379.833 168.059C380.199 174.783 381.702 181.436 381.702 185.655C381.702 189.874 380.961 193.403 385.053 196.567C388.683 199.366 394.847 200.117 399.358 200.36C409.914 200.918 416.841 190.624 422.318 183.545C422.318 183.545 432.746 182.531 433.498 176.862C434.25 171.193 432.542 168.617 432.542 168.617L432.983 160.676C432.983 160.676 398.101 144.449 382.819 151.832Z" stroke="#263238" stroke-linecap="round" stroke-linejoin="round"/>
<path d="M421.577 160.635C421.577 160.635 419.333 170.483 420.826 171.193C422.318 171.903 430.147 169.073 430.491 165.909C430.835 162.745 426.743 160.28 421.577 160.635Z" fill="#263238" stroke="#263238" stroke-linecap="round" stroke-linejoin="round"/>
<path d="M381.219 153.12C381.219 153.12 398.477 155.625 412.191 159.804C425.905 163.982 432.542 168.576 432.542 168.576C432.542 168.576 436.967 161.477 436.527 157.714C436.086 153.952 417.078 147.268 401.57 144.348C386.062 141.427 383.431 141.833 382.11 143.506C380.789 145.179 379.007 151.447 381.219 153.12Z" fill="#263238" stroke="#263238" stroke-linecap="round" stroke-linejoin="round"/>
<path d="M393.623 160.98C393.623 160.98 384.312 175.412 386.546 177.521C388.779 179.631 393.999 181.04 395.491 180.341" stroke="#263238" stroke-linecap="round" stroke-linejoin="round"/>
<path d="M386.546 183.86C386.546 183.86 405.876 189.133 410.022 179.286" stroke="#263238" stroke-linecap="round" stroke-linejoin="round"/>
<path d="M407.047 177.876L412.631 179.986" stroke="#263238" stroke-linecap="round" stroke-linejoin="round"/>
<path d="M405.361 166.609C406.286 166.609 407.036 165.428 407.036 163.972C407.036 162.516 406.286 161.335 405.361 161.335C404.436 161.335 403.686 162.516 403.686 163.972C403.686 165.428 404.436 166.609 405.361 166.609Z" fill="#263238"/>
<path d="M390.455 160.453C390.455 161.913 389.703 163.1 388.779 163.1C387.856 163.1 387.104 161.913 387.104 160.453C387.104 158.992 387.856 157.816 388.779 157.816C389.703 157.816 390.455 159.002 390.455 160.453Z" fill="#263238"/>
<path d="M403.686 155.706C403.686 155.706 412.997 156.061 412.631 163.1" stroke="#263238" stroke-linecap="round" stroke-linejoin="round"/>
<path d="M391.389 153.597C391.389 153.597 389.155 152.187 384.312 157.116" stroke="#263238" stroke-linecap="round" stroke-linejoin="round"/>
<path d="M257.308 376.309H246.762V519.57H257.308V376.309Z" fill="white" stroke="#263238" stroke-linecap="round" stroke-linejoin="round"/>
<path d="M264.611 376.309H254.065V519.57H264.611V376.309Z" fill="#263238" stroke="#263238" stroke-linecap="round" stroke-linejoin="round"/>
<path d="M307.601 376.309H297.054V519.57H307.601V376.309Z" fill="white" stroke="#263238" stroke-linecap="round" stroke-linejoin="round"/>
<path d="M314.903 376.309H304.357V519.57H314.903V376.309Z" fill="#263238" stroke="#263238" stroke-linecap="round" stroke-linejoin="round"/>
<path d="M419.548 376.309H409.001V519.57H419.548V376.309Z" fill="white" stroke="#263238" stroke-linecap="round" stroke-linejoin="round"/>
<path d="M426.851 376.309H416.304V519.57H426.851V376.309Z" fill="#263238" stroke="#263238" stroke-linecap="round" stroke-linejoin="round"/>
<path d="M469.851 376.309H459.305V519.57H469.851V376.309Z" fill="white" stroke="#263238" stroke-linecap="round" stroke-linejoin="round"/>
<path d="M477.154 376.309H466.608V519.57H477.154V376.309Z" fill="#263238" stroke="#263238" stroke-linecap="round" stroke-linejoin="round"/>
<path d="M487.7 370.944H240.276V383.205H487.7V370.944Z" fill="white" stroke="#263238" stroke-linecap="round" stroke-linejoin="round"/>
<path d="M487.7 370.944H420.364V383.205H487.7V370.944Z" fill="#263238" stroke="#263238" stroke-linecap="round" stroke-linejoin="round"/>
<path d="M491.748 367.881H232.157V374.006H491.748V367.881Z" fill="white" stroke="#263238" stroke-linecap="round" stroke-linejoin="round"/>
<path d="M491.749 367.881H426.851V374.006H491.749V367.881Z" fill="#263238" stroke="#263238" stroke-linecap="round" stroke-linejoin="round"/>
<path d="M345.027 311.138H327.737V305.621H345.027C345.774 305.621 346.489 305.901 347.017 306.399C347.545 306.897 347.841 307.573 347.841 308.278V308.532C347.827 309.227 347.524 309.89 346.998 310.378C346.472 310.865 345.764 311.138 345.027 311.138Z" fill="white" stroke="#263238" stroke-linecap="round" stroke-linejoin="round"/>
<path d="M256.202 294.648H337.821V359.636C337.821 361.788 336.916 363.851 335.305 365.373C333.693 366.894 331.508 367.749 329.23 367.749H264.793C262.515 367.749 260.33 366.894 258.718 365.373C257.107 363.851 256.202 361.788 256.202 359.636V294.648Z" fill="white" stroke="#263238" stroke-linecap="round" stroke-linejoin="round"/>
<path d="M328.091 294.648V359.311C328.091 361.544 327.152 363.685 325.481 365.263C323.809 366.842 321.542 367.729 319.178 367.729H325.793C328.156 367.726 330.422 366.838 332.093 365.26C333.764 363.682 334.704 361.543 334.707 359.311V294.648H328.091Z" fill="#263238" stroke="#263238" stroke-linecap="round" stroke-linejoin="round"/>
<path d="M268.875 294.648V359.311C268.875 363.956 276.016 367.729 280.935 367.729H274.362C271.997 367.729 269.729 366.842 268.056 365.264C266.382 363.686 265.441 361.545 265.438 359.311V294.648H268.875Z" fill="#263238" stroke="#263238" stroke-linecap="round" stroke-linejoin="round"/>
<path d="M337.284 291.97H256.782C254.896 291.97 253.367 293.414 253.367 295.195V295.449C253.367 297.23 254.896 298.674 256.782 298.674H337.284C339.17 298.674 340.699 297.23 340.699 295.449V295.195C340.699 293.414 339.17 291.97 337.284 291.97Z" fill="white" stroke="#263238" stroke-linecap="round" stroke-linejoin="round"/>
<path d="M246.118 305.621H263.408V311.138H246.118C245.375 311.135 244.664 310.856 244.139 310.36C243.614 309.864 243.318 309.192 243.315 308.491V308.278C243.315 307.575 243.61 306.901 244.135 306.403C244.66 305.905 245.373 305.624 246.118 305.621Z" fill="white" stroke="#263238" stroke-linecap="round" stroke-linejoin="round"/>
<path d="M256.202 305.621H273.493V311.138H256.202C255.456 311.138 254.74 310.858 254.213 310.36C253.685 309.862 253.388 309.186 253.388 308.481V308.268C253.391 307.565 253.689 306.892 254.216 306.396C254.744 305.9 255.458 305.621 256.202 305.621Z" fill="white" stroke="#263238" stroke-linecap="round" stroke-linejoin="round"/>
<path d="M337.606 296.301H256.47V297.335H337.606V296.301Z" fill="#263238" stroke="#263238" stroke-linecap="round" stroke-linejoin="round"/>
<path d="M298.29 269.466C296.732 267.671 294.907 266.17 294.907 262.661C294.852 260.817 295.504 259.016 296.743 257.59" stroke="#263238" stroke-linecap="round" stroke-linejoin="round"/>
<path d="M294.907 287.133C294.907 281.048 300.448 281.048 300.448 274.902C300.452 274.17 300.358 273.441 300.169 272.731" stroke="#263238" stroke-linecap="round" stroke-linejoin="round"/>
<path d="M314.871 264.354C314.464 263.316 314.268 262.216 314.291 261.109" stroke="#263238" stroke-linecap="round" stroke-linejoin="round"/>
<path d="M314.291 287.133C314.291 280.632 319.822 280.632 319.822 274.121C319.822 270.49 318.104 268.888 316.6 267.022" stroke="#263238" stroke-linecap="round" stroke-linejoin="round"/>
<path d="M272.762 263.675C272.645 263.083 272.588 262.482 272.59 261.88C272.572 260.843 272.754 259.812 273.127 258.837" stroke="#263238" stroke-linecap="round" stroke-linejoin="round"/>
<path d="M272.59 287.133C272.59 280.825 278.132 280.824 278.132 274.516C278.139 273.356 277.902 272.205 277.436 271.131C276.97 270.057 276.283 269.081 275.415 268.259" stroke="#263238" stroke-linecap="round" stroke-linejoin="round"/>
<path d="M456.738 311.138H439.448V305.621H456.738C457.484 305.621 458.2 305.901 458.728 306.399C459.255 306.897 459.552 307.573 459.552 308.278V308.532C459.538 309.227 459.235 309.89 458.709 310.378C458.183 310.865 457.475 311.138 456.738 311.138Z" fill="white" stroke="#263238" stroke-linecap="round" stroke-linejoin="round"/>
<path d="M367.956 294.648H449.575V359.636C449.575 361.788 448.67 363.851 447.059 365.373C445.447 366.894 443.262 367.749 440.983 367.749H376.483C374.204 367.749 372.019 366.894 370.408 365.373C368.797 363.851 367.891 361.788 367.891 359.636V294.648H367.956Z" fill="white" stroke="#263238" stroke-linecap="round" stroke-linejoin="round"/>
<path d="M439.813 294.648V359.311C439.81 361.545 438.868 363.686 437.195 365.264C435.522 366.842 433.253 367.729 430.888 367.729H437.482C439.846 367.729 442.114 366.842 443.785 365.263C445.457 363.685 446.396 361.544 446.396 359.311V294.648H439.813Z" fill="#263238" stroke="#263238" stroke-linecap="round" stroke-linejoin="round"/>
<path d="M380.564 294.648V359.311C380.564 363.956 387.695 367.729 392.624 367.729H386.041C383.678 367.726 381.412 366.838 379.741 365.26C378.07 363.682 377.13 361.543 377.127 359.311V294.648H380.564Z" fill="#263238" stroke="#263238" stroke-linecap="round" stroke-linejoin="round"/>
<path d="M448.995 291.97H368.493C366.607 291.97 365.078 293.414 365.078 295.195V295.449C365.078 297.23 366.607 298.674 368.493 298.674H448.995C450.881 298.674 452.41 297.23 452.41 295.449V295.195C452.41 293.414 450.881 291.97 448.995 291.97Z" fill="white" stroke="#263238" stroke-linecap="round" stroke-linejoin="round"/>
<path d="M357.829 305.621H375.119V311.138H357.829C357.459 311.139 357.093 311.072 356.751 310.94C356.409 310.807 356.098 310.613 355.836 310.367C355.574 310.121 355.365 309.829 355.222 309.507C355.08 309.185 355.006 308.84 355.004 308.491V308.278C355.004 307.928 355.077 307.582 355.219 307.259C355.361 306.936 355.57 306.643 355.832 306.396C356.094 306.149 356.406 305.953 356.749 305.82C357.091 305.687 357.458 305.62 357.829 305.621Z" fill="white" stroke="#263238" stroke-linecap="round" stroke-linejoin="round"/>
<path d="M367.891 305.621H385.182V311.138H367.891C367.145 311.138 366.429 310.858 365.902 310.36C365.374 309.862 365.078 309.186 365.078 308.481V308.268C365.08 307.565 365.378 306.892 365.906 306.396C366.433 305.9 367.147 305.621 367.891 305.621Z" fill="white" stroke="#263238" stroke-linecap="round" stroke-linejoin="round"/>
<path d="M449.317 296.301H368.181V297.335H449.317V296.301Z" fill="#263238" stroke="#263238" stroke-linecap="round" stroke-linejoin="round"/>
<path d="M408.948 278.898H408.819C407.858 278.898 407.079 279.633 407.079 280.541V285.216C407.079 286.123 407.858 286.859 408.819 286.859H408.948C409.909 286.859 410.688 286.123 410.688 285.216V280.541C410.688 279.633 409.909 278.898 408.948 278.898Z" fill="#5C5C5C" stroke="#263238" stroke-linecap="round" stroke-linejoin="round"/>
<path d="M368.622 292.001L372.101 289.709C376.212 286.99 381.109 285.532 386.127 285.53H431.877C438.21 285.53 444.296 287.85 448.856 292.001H368.622Z" fill="#5C5C5C" stroke="#263238" stroke-linecap="round" stroke-linejoin="round"/>
<path d="M160.042 234.69C160.042 234.69 164.499 241.901 166.4 246.099C168.301 250.298 170.856 255.714 168.311 254.507C165.766 253.3 163.221 251.809 160.998 251.809C158.775 251.809 158.141 254.213 157.185 252.408C156.229 250.602 160.042 234.69 160.042 234.69Z" fill="#F3F800" stroke="#263238" stroke-linecap="round" stroke-linejoin="round"/>
<path d="M153.373 493.526C153.373 493.526 168.633 501.934 174.368 503.739C180.103 505.544 183.905 508.81 184.216 512.147L184.538 515.443L184.216 517.846H114.571C113.512 515.365 112.972 512.713 112.982 510.037C112.982 505.534 115.527 504.632 116.805 501.924C118.083 499.216 148.594 491.427 148.594 491.427L153.373 493.526Z" fill="#BFBFBF" stroke="#263238" stroke-linecap="round" stroke-linejoin="round"/>
<path d="M113.648 515.118C113.879 516.039 114.188 516.941 114.571 517.816H184.205L184.527 515.412L184.205 512.116C183.894 508.81 180.081 505.504 174.357 503.709V515.118H113.648Z" fill="#263238" stroke="#263238" stroke-linecap="round" stroke-linejoin="round"/>
<path d="M170.534 350.295C170.534 350.295 172.768 353.895 170.856 355.366C168.945 356.837 167.989 357.475 167.989 357.475C169.312 359.989 169.65 362.863 168.945 365.589C167.678 369.798 161.953 387.505 161.953 395.913C161.953 404.32 162.587 425.04 159.086 436.753C155.585 448.467 148.594 473.983 149.55 479.693C150.505 485.403 154.006 488.101 154.64 489.602C155.18 491.459 155.394 493.388 155.274 495.311C155.274 497.106 148.594 505.22 137.468 509.114C126.342 513.009 117.063 513.627 114.915 513.019C112.767 512.41 110.469 508.82 110.78 505.818C111.092 502.816 112.08 502.238 112.08 500.129C112.08 498.019 106.989 477.614 107.623 466.205C108.257 454.795 118.438 437.372 118.438 428.964C118.438 420.557 115.216 405.851 112.714 397.14C110.211 388.428 109.492 386.633 109.492 385.73C109.492 384.828 105.991 377.921 103.768 372.211C101.545 366.502 98.3979 361.106 98.3979 355.102C98.4403 351.084 98.7595 347.073 99.3538 343.095L102.221 336.188C102.221 336.188 168.032 344.89 168.988 344.89C169.944 344.89 170.534 350.295 170.534 350.295Z" fill="#263238" stroke="#263238" stroke-linecap="round" stroke-linejoin="round"/>
<path d="M175.651 311.231C175.651 311.231 187.421 304.892 190.149 302.103C192.176 300.03 196.108 293.99 200.888 293.99C201.801 293.99 211.09 289.202 219.248 291.402C223.329 291.615 234.219 292.041 237.849 287.122C241.478 282.204 244.174 277.904 244.174 276.616C244.174 275.328 243.1 274.963 240.791 276.433C238.482 277.904 219.452 278.33 214.233 278.33C209.013 278.33 206.984 277.681 204.707 279.344C202.43 281.007 193.828 289.202 192.69 289.202C191.551 289.202 187.932 288.776 185.892 290.915C184.276 289.932 182.362 289.479 180.447 289.627C177.719 290.053 165.25 296.483 165.25 296.483L175.651 311.231Z" fill="#FDCCA6" stroke="#263238" stroke-linecap="round" stroke-linejoin="round"/>
<path d="M159.408 247.6C159.687 247.98 159.945 248.372 160.181 248.777C162.246 252.326 163.6 256.204 164.176 260.217C165.454 268.33 166.088 283.34 168.945 293.846C171.801 304.353 182.304 320.266 180.758 333.48C179.211 346.695 175.034 350.893 167.72 351.198C160.407 351.502 109.212 341.289 101.587 339.19C93.9625 337.091 92.3623 338.287 92.9959 331.381C93.6295 324.474 101.587 299.546 101.899 290.54C102.21 281.534 95.219 261.717 105.121 247.306C115.022 232.895 125.794 223.28 131.829 224.487C137.865 225.694 155.273 237.093 159.408 247.6Z" fill="white" stroke="#263238" stroke-linecap="round" stroke-linejoin="round"/>
<path d="M144.781 159.327C144.781 159.327 155.907 154.824 164.81 156.021C173.713 157.217 182.616 163.83 184.528 168.333C186.439 172.836 188.029 174.935 188.029 177.937C188.029 180.939 188.029 181.841 187.706 182.744L187.395 183.647C187.395 183.647 190.617 190.857 190.885 193.251C191.154 195.644 190.885 196.861 188.662 196.861H186.439C186.439 196.861 183.572 214.873 181.07 216.972C178.567 219.072 170.899 219.376 170.899 219.376C170.899 219.376 163.586 222.418 161.996 231.992C160.407 241.566 158.495 252.712 158.495 252.712C158.495 252.712 142.279 224.781 140.378 218.778C138.477 212.774 137.511 208.565 137.511 208.565C139.328 205.74 140.43 202.558 140.733 199.265C141.055 194.194 134.053 183.342 135.964 173.14C137.876 162.937 144.781 159.327 144.781 159.327Z" fill="#999999"/>
<path d="M144.781 159.327C144.781 159.327 155.907 154.824 164.81 156.021C173.713 157.217 182.616 163.83 184.528 168.333C186.439 172.836 188.029 174.935 188.029 177.937C188.029 180.939 188.029 181.841 187.706 182.744L187.395 183.647C187.395 183.647 190.617 190.857 190.885 193.251C191.154 195.644 190.885 196.861 188.662 196.861H186.439C186.439 196.861 183.572 214.873 181.07 216.972C178.567 219.072 170.899 219.376 170.899 219.376C170.899 219.376 163.586 222.418 161.996 231.992C160.407 241.566 158.495 252.712 158.495 252.712C158.495 252.712 142.279 224.781 140.378 218.778C138.477 212.774 137.511 208.565 137.511 208.565C139.328 205.74 140.43 202.558 140.733 199.265C141.055 194.194 134.053 183.342 135.964 173.14C137.876 162.937 144.781 159.327 144.781 159.327Z" fill="url(#paint3_radial_392_4)"/>
<path d="M144.781 159.327C144.781 159.327 155.907 154.824 164.81 156.021C173.713 157.217 182.616 163.83 184.528 168.333C186.439 172.836 188.029 174.935 188.029 177.937C188.029 180.939 188.029 181.841 187.706 182.744L187.395 183.647C187.395 183.647 190.617 190.857 190.885 193.251C191.154 195.644 190.885 196.861 188.662 196.861H186.439C186.439 196.861 183.572 214.873 181.07 216.972C178.567 219.072 170.899 219.376 170.899 219.376C170.899 219.376 163.586 222.418 161.996 231.992C160.407 241.566 158.495 252.712 158.495 252.712C158.495 252.712 142.279 224.781 140.378 218.778C138.477 212.774 137.511 208.565 137.511 208.565C139.328 205.74 140.43 202.558 140.733 199.265C141.055 194.194 134.053 183.342 135.964 173.14C137.876 162.937 144.781 159.327 144.781 159.327Z" stroke="#263238" stroke-linecap="round" stroke-linejoin="round"/>
<path d="M181.026 216.952C183.002 215.329 185.161 204.143 186.042 199.194C183.969 197.703 174.314 196.263 170.534 198.038C166.754 199.813 162.587 202.845 161.942 201.942C161.298 201.04 158.259 187.541 160.46 185.148C162.662 182.754 168.096 182.734 166.818 178.829C165.54 174.925 160.042 177.045 159.73 173.759C159.419 170.473 162.952 167.45 158.774 166.558C155.902 166.079 152.949 166.285 150.183 167.156C149.238 167.156 147.326 165.949 147.326 162.948C147.327 162.155 147.043 161.386 146.52 160.767C145.997 160.148 145.266 159.715 144.448 159.54C143.041 160.402 137.543 164.276 135.857 173.16C133.945 183.363 140.947 194.174 140.625 199.285C140.366 202.312 139.425 205.251 137.865 207.906C139.335 208.516 140.977 208.652 142.536 208.291C145.758 207.388 145.393 204.691 146.349 202.581C147.305 200.472 150.484 199.884 148.894 195.979C147.305 192.075 151.439 187.866 153.34 188.17C155.241 188.474 157.163 191.476 156.208 193.241C155.252 195.005 152.986 203.748 152.986 208.251C152.986 212.753 154.253 216.658 157.12 218.159C159.988 219.66 163.961 221.009 166.786 222.216C167.918 221.06 169.26 220.105 170.749 219.396C170.749 219.396 178.492 219.082 181.026 216.952Z" fill="#263238" stroke="#263238" stroke-linecap="round" stroke-linejoin="round"/>
<path d="M181.982 184.843C181.982 186.01 181.553 186.953 181.027 186.953C180.5 186.953 180.082 186.01 180.082 184.843C180.082 183.677 180.5 182.744 181.027 182.744C181.553 182.744 181.982 183.687 181.982 184.843Z" fill="#263238"/>
<path d="M176.258 179.428C177.879 178.571 179.583 177.864 181.349 177.318C182.938 177.024 185.483 178.221 185.161 175.817C184.839 173.414 181.671 174.316 177.848 175.219C174.024 176.122 174.035 178.241 176.258 179.428Z" fill="white" stroke="#263238" stroke-linecap="round" stroke-linejoin="round"/>
<path d="M172.124 184.245C173.129 184.795 174.214 185.201 175.345 185.452" stroke="#263238" stroke-linecap="round" stroke-linejoin="round"/>
<path d="M175.302 186.649C174.757 187.015 174.13 187.26 173.469 187.364C172.809 187.467 172.132 187.428 171.49 187.248" stroke="#263238" stroke-linecap="round" stroke-linejoin="round"/>
<path d="M170.867 173.12C170.867 173.12 175.796 169.398 181.961 170.331" stroke="#263238" stroke-linecap="round" stroke-linejoin="round"/>
<path d="M173.573 167.258C173.573 167.258 179.738 165.634 182.455 167.258" stroke="#263238" stroke-linecap="round" stroke-linejoin="round"/>
<path d="M150.505 164.732C149.549 164.732 147.649 163.526 147.649 160.524C147.649 157.522 143.825 155.727 140.969 158.12C138.112 160.514 138.746 162.025 135.878 162.623C133.011 163.221 126.975 161.426 126.02 167.136C125.064 172.846 126.342 174.337 125.064 175.838C123.786 177.339 117.117 180.046 117.439 185.148C117.761 190.249 121.573 190.219 120.295 193.261C119.017 196.304 115.849 200.168 120.618 203.17C125.386 206.172 133.333 199.874 134.289 202.277C135.245 204.681 139.659 206.78 142.88 205.877C146.102 204.975 145.748 202.277 146.704 200.168C147.659 198.058 150.838 197.47 149.249 193.565C147.659 189.661 151.783 185.452 153.695 185.756C155.606 186.061 157.507 189.062 156.562 190.827C155.617 192.592 153.34 201.334 153.34 205.837C153.34 210.34 154.608 214.244 157.464 215.745C160.321 217.246 164.778 218.788 167.645 219.954C170.513 221.12 179.405 224.751 182.272 222.348C185.14 219.944 186.718 214.234 186.718 208.839C186.718 203.443 188.308 198.332 186.407 196.831C184.506 195.33 174.594 193.788 170.824 195.624C167.055 197.46 162.877 200.431 162.233 199.529C161.588 198.626 159.365 189.022 161.588 186.618C163.811 184.215 169.224 181.213 167.946 177.308C166.668 173.404 160.321 174.611 159.999 171.304C159.677 167.998 163.221 164.996 159.043 164.104C156.186 163.642 153.252 163.858 150.505 164.732Z" fill="white" stroke="#263238" stroke-linecap="round" stroke-linejoin="round"/>
<path d="M173.402 199.863C174.351 201.206 175.713 202.242 177.305 202.831C178.897 203.42 180.642 203.535 182.305 203.159" stroke="#263238" stroke-linecap="round" stroke-linejoin="round"/>
<path d="M157.056 189.884C157.056 189.884 156.562 185.695 151.139 184.996C145.715 184.296 145.221 192.673 147.444 196.638C149.668 200.604 152.621 198.494 152.621 198.494" fill="#FDCCA6"/>
<path d="M157.056 189.884C157.056 189.884 156.562 185.695 151.139 184.996C145.715 184.296 145.221 192.673 147.444 196.638C149.668 200.604 152.621 198.494 152.621 198.494" stroke="#263238" stroke-linecap="round" stroke-linejoin="round"/>
<path d="M136.834 205.563C136.834 205.563 148.282 230.785 151.461 237.398C154.64 244.01 159.408 248.807 159.408 255.409C159.408 262.012 162.276 276.433 162.276 290.844C162.276 305.256 166.088 325.975 164.81 334.078C163.532 342.182 160.407 348.196 160.407 351.502C160.407 354.808 160.718 359.615 159.129 359.615C157.54 359.615 134.654 358.114 117.793 354.21C100.932 350.305 91.0845 348.5 91.0845 346.096C91.0845 343.693 92.0403 339.19 92.0403 337.983C92.0403 336.776 88.2278 334.383 90.1394 326.279C92.051 318.176 93.9519 292.944 94.5855 274.932C95.2191 256.92 102.855 240.998 107.945 233.787C113.036 226.577 121.906 221.485 121.906 221.485C121.906 221.485 116.827 215.776 122.862 212.175C127.332 209.635 132.003 207.424 136.834 205.563Z" fill="#F3F800" stroke="#263238" stroke-linecap="round" stroke-linejoin="round"/>
<path d="M95.4983 337.872C114.568 345.59 135.074 349.647 155.821 349.808" stroke="#263238" stroke-linecap="round" stroke-linejoin="round"/>
<path d="M102.758 340.59L101.448 348.835" stroke="#263238" stroke-linecap="round" stroke-linejoin="round"/>
<path d="M112.348 344.302L111.049 350.894" stroke="#263238" stroke-linecap="round" stroke-linejoin="round"/>
<path d="M122.819 346.776L121.949 353.368" stroke="#263238" stroke-linecap="round" stroke-linejoin="round"/>
<path d="M132.42 348.419L131.98 354.19" stroke="#263238" stroke-linecap="round" stroke-linejoin="round"/>
<path d="M143.332 349.656V355.833" stroke="#263238" stroke-linecap="round" stroke-linejoin="round"/>
<path d="M151.461 237.398C148.239 230.785 136.834 205.563 136.834 205.563C132.007 207.424 127.339 209.635 122.873 212.175C116.837 215.776 121.917 221.485 121.917 221.485C121.917 221.485 132.732 236.495 136.233 243.402C139.734 250.308 138.778 248.807 141.957 253.614C145.135 258.421 146.725 262.316 147.681 260.815C148.637 259.314 156.584 252.103 158.485 252.702C158.71 252.773 158.946 252.833 159.204 252.894C158.184 247.519 154.221 243.138 151.461 237.398Z" fill="#F3F800" stroke="#263238" stroke-linecap="round" stroke-linejoin="round"/>
<path d="M195.02 268.32H255.16C255.16 268.32 250.07 274.628 245.301 277.336C240.533 280.044 234.175 280.378 234.175 280.378H218.228C218.228 280.378 205.512 280.033 195.02 268.32Z" fill="#BFBFBF" stroke="#263238" stroke-linecap="round" stroke-linejoin="round"/>
<path d="M193.108 283.938C195.791 281.714 198.05 279.073 199.788 276.129C200.67 274.392 201.96 272.868 203.558 271.672C205.156 270.475 207.022 269.637 209.013 269.222C212.235 268.624 222.685 267.721 224.596 266.819C226.508 265.916 227.818 270.125 226.819 271.626C225.82 273.127 221.729 274.324 219.183 274.669C217.536 274.954 216.06 275.811 215.049 277.072C216.485 278.119 218.097 278.932 219.817 279.476C222.685 280.378 227.775 280.672 229.998 279.476C232.221 278.279 240.168 272.863 240.813 276.433C241.457 280.003 237.945 281.504 236.034 283.634C234.122 285.764 230.664 289.638 229.364 289.942C228.065 290.246 217.916 290.246 211.559 290.845C205.201 291.443 197.597 295.652 197.597 295.652L191.873 283.938H193.108Z" fill="#999999"/>
<path d="M193.108 283.938C195.791 281.714 198.05 279.073 199.788 276.129C200.67 274.392 201.96 272.868 203.558 271.672C205.156 270.475 207.022 269.637 209.013 269.222C212.235 268.624 222.685 267.721 224.596 266.819C226.508 265.916 227.818 270.125 226.819 271.626C225.82 273.127 221.729 274.324 219.183 274.669C217.536 274.954 216.06 275.811 215.049 277.072C216.485 278.119 218.097 278.932 219.817 279.476C222.685 280.378 227.775 280.672 229.998 279.476C232.221 278.279 240.168 272.863 240.813 276.433C241.457 280.003 237.945 281.504 236.034 283.634C234.122 285.764 230.664 289.638 229.364 289.942C228.065 290.246 217.916 290.246 211.559 290.845C205.201 291.443 197.597 295.652 197.597 295.652L191.873 283.938H193.108Z" fill="#FDCCA6"/>
<path d="M193.108 283.938C195.791 281.714 198.05 279.073 199.788 276.129C200.67 274.392 201.96 272.868 203.558 271.672C205.156 270.475 207.022 269.637 209.013 269.222C212.235 268.624 222.685 267.721 224.596 266.819C226.508 265.916 227.818 270.125 226.819 271.626C225.82 273.127 221.729 274.324 219.183 274.669C217.536 274.954 216.06 275.811 215.049 277.072C216.485 278.119 218.097 278.932 219.817 279.476C222.685 280.378 227.775 280.672 229.998 279.476C232.221 278.279 240.168 272.863 240.813 276.433C241.457 280.003 237.945 281.504 236.034 283.634C234.122 285.764 230.664 289.638 229.364 289.942C228.065 290.246 217.916 290.246 211.559 290.845C205.201 291.443 197.597 295.652 197.597 295.652L191.873 283.938H193.108Z" stroke="#263238" stroke-linecap="round" stroke-linejoin="round"/>
<path d="M181.349 288.441C181.349 288.441 191.519 282.133 193.108 283.938C194.698 285.743 202.333 293.542 200.422 296.848C198.51 300.155 186.117 305.56 186.117 305.56L181.349 288.441Z" fill="#F3F800" stroke="#263238" stroke-linecap="round" stroke-linejoin="round"/>
<path d="M133.333 243.706C133.333 243.706 140.647 251.211 143.514 258.117C146.382 265.024 153.051 284.486 154.006 286.037C154.962 287.589 156.552 290.246 156.552 290.246C156.552 290.246 173.08 286.037 176.581 285.743C180.082 285.449 183.572 288.441 185.795 292.345C188.018 296.25 195.342 307.954 192.163 310.966C188.985 313.978 161.32 327.497 153.051 330.478C144.781 333.46 136.512 331.675 132.646 325.407C128.78 319.14 112.617 284.273 109.438 276.159C106.259 268.046 106.571 261.444 107.849 259.04" fill="#F3F800"/>
<path d="M133.333 243.706C133.333 243.706 140.647 251.211 143.514 258.117C146.382 265.024 153.051 284.486 154.006 286.037C154.962 287.589 156.552 290.246 156.552 290.246C156.552 290.246 173.08 286.037 176.581 285.743C180.082 285.449 183.572 288.441 185.795 292.345C188.018 296.25 195.342 307.954 192.163 310.966C188.985 313.978 161.32 327.497 153.051 330.478C144.781 333.46 136.512 331.675 132.646 325.407C128.78 319.14 112.617 284.273 109.438 276.159C106.259 268.046 106.571 261.444 107.849 259.04" stroke="#263238" stroke-linecap="round" stroke-linejoin="round"/>
<path d="M144.781 310.063C146.37 300.449 156.594 290.246 156.594 290.246C156.594 290.246 145.146 295.652 141.323 300.155" stroke="#263238" stroke-linecap="round" stroke-linejoin="round"/>
<path d="M59.4463 519.56H549.87" stroke="#263238" stroke-linecap="round" stroke-linejoin="round"/>
<defs>
<radialGradient id="paint0_radial_392_4" cx="0" cy="0" r="1" gradientUnits="userSpaceOnUse" gradientTransform="translate(452.359 366.612) rotate(90.0438) scale(13.9617 12.9044)">
<stop stop-color="#FFAA88"/>
<stop offset="1" stop-color="#FDCCA6"/>
</radialGradient>
<radialGradient id="paint1_radial_392_4" cx="0" cy="0" r="1" gradientUnits="userSpaceOnUse" gradientTransform="translate(403.888 211.198) rotate(90.0407) scale(20.4944 17.6119)">
<stop stop-color="#FFAA88"/>
<stop offset="1" stop-color="#FDCCA6"/>
</radialGradient>
<radialGradient id="paint2_radial_392_4" cx="0" cy="0" r="1" gradientUnits="userSpaceOnUse" gradientTransform="translate(406.769 180.531) rotate(90.0626) scale(19.8508 26.2603)">
<stop stop-color="#FFAA88"/>
<stop offset="1" stop-color="#FDCCA6"/>
</radialGradient>
<radialGradient id="paint3_radial_392_4" cx="0" cy="0" r="1" gradientUnits="userSpaceOnUse" gradientTransform="translate(163.324 214.606) rotate(90.0335) scale(38.1058 26.9689)">
<stop stop-color="#FFAA88"/>
<stop offset="1" stop-color="#FDCCA6"/>
</radialGradient>
</defs>
</svg>
